<?xml version="1.0" encoding="utf-8"?>
<!-- Generator: Adobe Illustrator 17.1.0, SVG Export Plug-In . SVG Version: 6.00 Build 0)  -->
<!DOCTYPE svg PUBLIC "-//W3C//DTD SVG 1.1//EN" "http://www.w3.org/Graphics/SVG/1.1/DTD/svg11.dtd">
<svg version="1.1" id="Layer_1" xmlns="http://www.w3.org/2000/svg" xmlns:xlink="http://www.w3.org/1999/xlink" x="0px" y="0px"
	 viewBox="0 0 300 178.6" enable-background="new 0 0 300 178.6" xml:space="preserve">
<g>
	<path fill="#404040" d="M66.7,53.4c0,0,8.9-4,12.3-7.6c1.4,4.3,4.1,13,7.8,16.6c-2.9,0.6-7.6,3.8-9.5,5.9C75.4,63,71,56,66.7,53.4z
		 M115.8,27.7c-5.1-0.3-8.6,0-15.5,1.8C99.7,17.7,91.7,7,91.7,7c0.6-0.2,12.5-5,20.2-3.8C115,7.7,115.8,20.9,115.8,27.7z
		 M123.3,172.1c1.1,1,2.6,2,4.8,2.8H88.2c4-1.8,7.3-3.9,7.7-5.9c0.9-4.4,2.6-13.9,0-23c-2.6-6.8-9.2-11.5-16.7-14.7
		c-1.9,0.5-4.9,1.4-7.7,3c1.9,1.6,3.9,3,4.1,3.1c0,0-7.9,5.6-9.7,10.2c-1.2-1.5-5.7-6-7.5-6.6c0.8-1.8,5.1-8.1,9.8-10.1
		c0.5,0.8,1.2,1.6,2.1,2.4c1.4-1.3,3.2-2.6,5.5-3.3c-8.1-2.9-16.7-4.3-22.8-5c-0.1,2.1-0.1,4.5,0,7.5c-12.3-2-24.9,3.2-24.9,3.2
		c-0.1-0.6-2.5-13.1,0.3-20.3c5.3-2,19,0.2,26,1.7c-0.6,2-1,3.7-1.2,5.5c6-0.9,11.4-1.1,16.3-0.7c-1.8-2.6-5.2-6-11-8.7
		c-5.6-2.6-9.7-5.9-12.3-8.4c-2.5,1.1-4.9,2.4-6.3,3.4c-1.2-7.5-5.4-18-10.5-22.5c0,0,12.9-3.1,18.3-7.2c0.8,6.1,2.3,18.5,6.3,24.1
		c-1.9,0-4.5,0.8-7,1.8c3.2,2.4,8.2,5.3,14.5,7c-0.6-2.4-0.2-4.8,0.2-6.4c-1,0-1.9,0.1-2.9,0.3c-0.3-3.1-0.7-9.1,0.4-11.3
		c3.2-0.9,8.5,0.7,8.7,0.8c0,0-2.8,5.2-2.5,10.6c-1.4-0.2-2.4-0.3-3.4-0.3c-0.1,2.6,0.6,5,1.5,6.8c7,1.5,11.6,7.3,13.8,10.9
		c4.3,0.8,8.2,2,11.5,3.1c-0.1-1.4-0.3-4.1-1.4-6c-0.8,0.2-1.8,0.6-2.9,1c-0.9-5.3-4.9-9.7-4.9-9.7c0.2-0.1,5-2.9,8.3-2.8
		c1.6,1.9,2.6,7.8,3,10.9c-1.2,0.1-2.1,0.2-3.2,0.5c1.1,1.5,2.1,4.4,2.7,6.7c2.7,1,5,2,6.9,2.8c1.6-12.7-4.6-23-8.9-28.4
		c-2.9,2.2-5.7,4.5-6.8,5.7c-2.3-8.8-15.3-20.5-15.3-20.5c0.5-0.3,11-5.7,14.5-10.2c8.2,4.6,14.5,16.9,15.6,20.3
		c-1.4,0.3-3.9,1.8-6.4,3.6c1.9,1.4,4.2,3.4,6.6,6.2c1.1,1.3,2.1,2.8,3.1,4.4c1.2-1.1,2.9-2.8,4.1-5.1c-1.8-0.6-3.4-1.1-4.3-1.3
		c3.7-4.1,5.3-14.5,5.3-14.5c0.3,0.2,6.5,3.7,9.9,4c0.3,5.6-3.8,12.9-5.1,14.5c-0.7-0.6-2.4-1.5-4.2-2.2c-0.7,2.3-2,4.8-4.2,7.3
		c2.6,5.5,4.5,12.2,6.6,18.2c15.7-13.1,11.2-37.3,7.9-48.6c-2.1,1.4-4.4,3.2-7.2,5.7c-6.7-12.1-20.1-19.5-20.1-19.5
		c0.5-0.5,9.7-11.3,18-13.8c5.4,3.3,13,16.8,16.6,24c-2.2,0.9-4,1.8-5.8,2.8c3.8,5.4,6.5,12.1,8,19.1c2.1-2,4.5-3.8,6.8-5.3
		c-0.8-0.7-1.6-1.2-2.2-1.4c0.8-1.8,5.1-8.1,9.9-10.1c1.6,2.7,7,6.3,7.3,6.5c0,0-7.9,5.6-9.7,10.3c-0.6-0.8-2.2-2.5-3.9-4
		c-3.6,4.4-5.9,10.1-7,13.3c0.4,5.8,0,11.4-1.3,16c3.7-2.3,8.7-3.7,14.2-4.5c0.6-5.3,5-9.4,8.8-11.9c-1.5-1.9-3.1-3.4-5.1-5
		c5-5.2,15.1-14.7,20.6-16c6.4,4.4,11.4,16.1,11.6,16.7c0,0-13.4,2.7-22.4,11.3c-1.4-2.3-2.5-4.1-3.7-5.6c-3.4,4.1-4.5,8.3-4.8,10.2
		c6.7-0.5,13.7-0.2,19.9,0.6c0.6-3.1,0.9-6,0.6-7.4c3.5-0.4,17.3,0.1,24.9,5.6c-2.6,5-3.1,16.9-3.1,17.4c0,0-16.1-6.9-25-5.2
		c0.6-1.5,1.5-4.8,2.2-8.2c-12.7-0.2-20.6,1.5-26.9,4.8c4.2,0.4,7,0.9,8.8,1.5c0.6-1.3,1.1-2.6,1.1-3.3c1.9,0.3,9.2,2.6,12.5,6.6
		c-2.1,2.3-4.1,8.5-4.2,8.8c0,0-7.5-6-12.6-6.5c0.6-0.8,1.8-2.9,2.8-4.9c-3.5-0.6-8.1-0.6-11.7-0.4c-2.3,1.5-4.5,3.2-6.7,5.1
		c-2.7,2.3-4.6,5.4-6,8.8c1,1.5,1.7,3.7,1.7,6.1c0,3.9-1.7,7.2-3.9,8C118.8,164.4,120.5,169.2,123.3,172.1z M119.2,150
		c0.2-2.3-0.6-4.2-1.8-4.4c-1.2-0.1-2.4,1.7-2.6,4c-0.2,2.3,0.6,4.3,1.8,4.4C117.8,154.1,119,152.3,119.2,150z M115.9,142.3
		c-2.8,0.5-4.4,4.5-3.6,9c0.4-4.7,1.2-6.6,3.3-7.9C116.9,142.6,115.9,142.3,115.9,142.3z M89.8,51.6C85,40,73.6,32,73.6,32
		c0.5-0.4,9.9-9.3,17.6-10.7c4.5,3.5,10.1,16.5,12.6,23.3c-2.7,0.8-4.9,1.6-7.2,2.8c0.6,3.3,0.6,6.7,0,7.7c-0.2-2.4-0.9-4.8-1.7-6.8
		C93.4,49.2,91.7,50.3,89.8,51.6z M31.3,95.4c-1.6,2.2-2.2,11.6-1.9,18c-10.5-4.3-25.4-2.8-25.4-2.8c1.8-4.1,2.5-14.4,2-18
		C9.8,94.9,25.4,95.7,31.3,95.4z M70.3,74.5c-4.3,0.3-12.8,2.7-16.4,5.6c-0.6-7.9-8.4-19.7-12.2-25.7c7.7-0.4,21.3-7.2,21.3-7.2
		C61.7,54.8,65.9,67,70.3,74.5z M134.7,37c-5.8-0.8-8.7-0.7-12.8,0.1c-0.7-5.9-1.6-17.4,0.4-21.6c6.1-1.8,16.3,1.1,16.8,1.2
		C139.1,16.7,133.9,26.7,134.7,37z M63.1,43.8c0,0-7.2-10.4-13.3-12.8c1.9-1.5,7.9-7.3,8.8-9.7c2.3,1.1,10.6,6.7,13.1,13
		C68.2,36.4,63.3,43.4,63.1,43.8z M147.1,73.3c8-4.3,16.2-19.7,16.2-19.7c0.4,0.4,8.2,9.3,13.3,11.7c-2.6,9-13,18-16,19.9
		c-0.6-1.2-2.3-3-4.4-4.8c-2.9,3.3-6.4,8.1-7.5,13c1-5.6,3.3-10.6,5.9-14.4C151.8,76.5,148.6,74.2,147.1,73.3z M185.7,117.3
		c0.7-3-3.1-13.1-6.3-19.8c13-0.4,27.9-8.9,27.9-8.9c0,5.1,4,16.3,6.3,19.7C208.5,107.8,191.8,114.2,185.7,117.3z M172.5,80.7
		c7.1-4.6,16.1-13.5,18.4-20.8c0,0,8.9,11.9,15.5,15.6c-5.9,3.6-18,10.5-21.9,17.2C182.5,88.6,176.1,82.7,172.5,80.7z M138.3,46.1
		c2.6-5.3,8.1-19.9,7.6-24.4c3,1.9,12.8,5.4,17.2,5.4c0,0-7.3,13-7.6,24.4C149.8,48.7,140.9,45.4,138.3,46.1z M132.5,72.1
		c-1.4,5.7-4.6,12.5-7.4,15.9c3-5.8,4.1-12.6,4.5-17c-2.4-0.8-4.8-1.4-6.6-1.4c3.9-5.8,4.8-18.2,5.4-24.3c5.5,3.9,18.5,6.5,18.5,6.5
		c-5,4.6-8.7,15.3-9.7,22.8C136.1,73.8,134.4,72.9,132.5,72.1z M106.9,38.2c3,0.3,9.9-1.4,12.1-2.5c-0.7,3,2.1,13.3,3.5,17.1
		c-1.8-0.6-8,1-12.1,2.5C110.9,47.6,106.9,38.2,106.9,38.2z M189.1,42c0,0-7.2,5.4-10.2,13.1c-3.9-2.6-6-3.5-9.2-4.3
		c1.5-4.5,4.8-13.1,7.7-15.4C182.5,36.1,188.8,41.7,189.1,42z M31.5,75.4C29,68.8,17.9,60.8,17.9,60.8c0.4-0.2,8.1-5.3,10.4-9.1
		c6.7,2.9,12.6,11.9,13.8,14.4C39.5,67,33.1,73.3,31.5,75.4z"/>
	<g>
		<rect x="242.6" y="65.2" fill="#404040" width="5.8" height="8.6"/>
		<rect x="242.6" y="107.9" fill="#404040" width="5.8" height="66.5"/>
		<circle fill="#404040" cx="245.5" cy="66.2" r="4.7"/>
		<g>
			<path fill="#F2F2F2" stroke="#13B0D4" stroke-width="5" stroke-miterlimit="10" d="M283.8,104.9h-56.6c-1.9,0-3.5-1.8-3.5-4V80.9
				c0-2.2,1.6-4,3.5-4h56.6c0.9,0,1.8,0.4,2.4,1.2l8.8,10c1.4,1.6,1.4,4.2,0,5.7l-8.8,10C285.6,104.5,284.7,104.9,283.8,104.9z"/>
			<rect x="231.1" y="80.9" fill="none" width="50.6" height="20.1"/>
			<text transform="matrix(1 0 0 1 236.5595 100.4687)" fill="#13B0D4" font-family="'RobotoCondensed-Bold'" font-size="26.1544">404</text>
		</g>
	</g>
	<line fill="none" stroke="#404040" stroke-width="2" stroke-miterlimit="10" x1="14.9" y1="174.9" x2="285.1" y2="174.9"/>
</g>
</svg>
